<?xml version="1.0" standalone="no"?>
<!DOCTYPE svg PUBLIC "-//W3C//DTD SVG 20010904//EN"
 "http://www.w3.org/TR/2001/REC-SVG-20010904/DTD/svg10.dtd">
<svg version="1.0" xmlns="http://www.w3.org/2000/svg"
 width="741.000000pt" height="666.000000pt" viewBox="0 0 741.000000 666.000000"
 preserveAspectRatio="xMidYMid meet">

<g transform="translate(0.000000,666.000000) scale(0.100000,-0.100000)"
fill="#000000" stroke="none">
<path d="M3690 6402 c0 -4 -21 -14 -47 -21 -25 -8 -54 -22 -64 -32 -9 -9 -33
-23 -53 -30 -20 -7 -45 -20 -54 -29 -9 -8 -39 -26 -67 -39 -27 -14 -52 -27
-55 -30 -3 -3 -23 -15 -45 -26 -22 -11 -42 -22 -45 -26 -3 -3 -27 -16 -55 -30
-27 -13 -58 -31 -68 -40 -10 -9 -35 -22 -57 -29 -22 -7 -40 -17 -40 -21 0 -4
-22 -18 -50 -30 -27 -12 -50 -26 -50 -29 0 -4 -19 -15 -42 -26 -24 -10 -47
-24 -53 -30 -5 -6 -31 -20 -57 -30 -27 -11 -48 -23 -48 -27 0 -4 -20 -16 -45
-27 -25 -11 -45 -23 -45 -28 0 -5 -18 -15 -40 -22 -22 -7 -47 -20 -57 -29 -10
-9 -34 -23 -53 -30 -19 -8 -39 -19 -45 -26 -5 -6 -32 -22 -60 -35 -27 -13 -52
-26 -55 -30 -3 -4 -27 -17 -55 -30 -27 -13 -52 -27 -55 -30 -3 -4 -25 -18 -50
-30 -25 -12 -47 -26 -50 -29 -3 -4 -22 -15 -42 -24 -21 -10 -38 -24 -38 -32 0
-7 -5 -15 -11 -17 -11 -4 -14 -1739 -2 -1800 8 -44 16 -52 63 -68 22 -7 40
-17 40 -21 0 -4 16 -13 35 -19 19 -6 38 -17 42 -24 5 -7 34 -23 66 -36 31 -13
57 -27 57 -31 0 -3 24 -17 53 -29 28 -12 54 -25 57 -29 3 -4 29 -18 58 -31 28
-14 52 -28 52 -31 0 -3 21 -14 48 -24 26 -10 50 -23 54 -30 4 -7 29 -20 55
-30 26 -10 56 -26 65 -35 10 -9 36 -23 58 -30 22 -7 40 -16 40 -21 0 -4 17
-14 39 -22 21 -9 45 -22 52 -30 8 -7 35 -22 62 -32 26 -10 47 -21 47 -24 0 -4
25 -18 55 -31 30 -13 55 -27 55 -30 0 -3 25 -17 55 -31 30 -13 55 -27 55 -30
0 -4 21 -14 48 -24 26 -10 52 -23 57 -30 6 -7 35 -23 65 -36 30 -13 57 -27 58
-31 2 -5 20 -15 40 -24 20 -8 39 -18 42 -23 8 -11 87 -41 110 -41 19 0 90 29
100 41 3 3 21 14 40 24 19 10 37 21 40 24 3 3 28 17 55 30 28 14 52 27 55 31
3 3 28 17 55 30 28 13 55 29 60 35 6 7 30 20 54 29 25 10 50 23 55 30 6 7 27
19 46 26 19 7 43 22 53 32 10 10 24 18 32 18 8 0 23 8 33 18 9 9 37 26 62 36
25 11 50 25 55 31 6 5 30 19 54 30 24 11 49 24 55 30 6 6 34 22 61 35 28 13
56 30 63 37 7 7 19 13 26 13 7 0 21 8 32 18 10 9 42 28 69 41 28 14 52 27 55
31 3 3 29 17 58 30 28 14 52 27 52 30 0 3 25 17 55 30 30 13 55 28 55 32 0 4
17 15 37 23 21 9 40 19 43 23 3 5 26 18 52 30 27 12 59 32 73 44 l25 22 0 887
c0 487 -3 901 -6 919 -5 21 -15 35 -32 41 -14 5 -30 16 -36 23 -6 7 -27 19
-46 26 -19 7 -40 19 -46 26 -5 7 -30 20 -55 30 -24 9 -49 23 -55 30 -5 7 -30
20 -55 30 -24 9 -49 23 -55 30 -5 7 -29 20 -52 29 -23 10 -42 21 -42 25 0 4
-24 18 -52 30 -29 12 -57 28 -63 35 -5 7 -30 20 -54 29 -25 10 -50 23 -55 30
-6 8 -32 21 -58 31 -26 9 -49 23 -51 29 -3 7 -23 18 -46 26 -23 7 -41 17 -41
22 0 5 -22 18 -50 30 -27 11 -50 24 -50 28 0 5 -25 18 -55 31 -30 12 -55 26
-55 30 0 3 -24 17 -52 29 -29 12 -57 28 -63 35 -5 6 -26 18 -45 26 -19 7 -43
21 -53 30 -10 9 -35 22 -57 29 -22 7 -40 16 -40 20 0 5 -21 18 -47 30 -27 12
-50 26 -53 29 -3 4 -29 18 -57 31 -29 13 -53 27 -53 32 0 4 -13 8 -30 8 -16 0
-30 -4 -30 -8z m49 -103 c17 -6 31 -14 31 -19 0 -4 24 -18 53 -30 28 -12 54
-26 57 -30 3 -4 21 -15 40 -25 19 -10 37 -21 40 -24 3 -3 28 -17 55 -30 28
-14 52 -27 55 -30 3 -3 28 -17 55 -30 28 -14 52 -27 55 -30 3 -3 28 -17 55
-30 28 -14 52 -27 55 -30 3 -3 23 -15 45 -26 22 -11 42 -23 45 -26 3 -3 25
-17 50 -29 25 -12 47 -26 50 -29 3 -4 25 -15 49 -26 24 -11 49 -24 55 -30 6
-5 34 -21 61 -34 28 -14 52 -27 55 -30 3 -3 23 -15 45 -26 22 -11 42 -22 45
-26 3 -3 28 -16 55 -29 28 -13 52 -27 55 -31 3 -4 26 -17 53 -29 26 -12 47
-25 47 -30 0 -4 18 -13 40 -20 22 -7 47 -20 57 -29 10 -9 37 -25 60 -36 24
-11 43 -23 43 -27 0 -3 15 -11 33 -18 31 -11 31 -12 10 -21 -13 -4 -23 -12
-23 -17 0 -4 -25 -19 -55 -32 -30 -13 -55 -27 -55 -30 0 -4 -24 -17 -52 -31
-29 -13 -55 -27 -58 -30 -3 -3 -25 -17 -50 -29 -25 -12 -47 -26 -50 -29 -3 -3
-22 -15 -42 -26 -21 -11 -38 -25 -38 -31 0 -7 -19 -19 -42 -29 -24 -9 -45 -20
-48 -24 -3 -4 -31 -18 -62 -30 -32 -13 -58 -27 -58 -31 0 -4 -18 -13 -40 -20
-22 -7 -48 -21 -58 -30 -9 -9 -39 -25 -65 -35 -26 -10 -47 -21 -47 -25 0 -4
-27 -18 -60 -30 -32 -12 -60 -25 -62 -29 -2 -4 -28 -17 -58 -30 -30 -13 -59
-29 -65 -36 -5 -7 -31 -20 -57 -30 -27 -10 -48 -21 -48 -24 0 -4 -22 -15 -50
-26 -27 -11 -50 -22 -50 -25 0 -4 -26 -17 -57 -30 -32 -13 -60 -26 -63 -30
-11 -15 -98 -50 -123 -50 -27 0 -117 39 -117 51 0 4 -27 17 -60 29 -33 12 -60
25 -60 29 0 4 -22 15 -50 26 -27 11 -50 22 -50 26 0 4 -27 17 -60 29 -33 12
-60 26 -60 30 0 4 -27 18 -60 30 -33 12 -60 26 -60 30 0 4 -27 18 -60 30 -33
12 -60 25 -60 29 0 4 -22 15 -50 26 -27 11 -50 22 -50 26 0 4 -27 17 -60 29
-33 12 -60 26 -60 30 0 4 -27 18 -60 30 -33 12 -60 26 -60 30 0 4 -27 18 -60
30 -33 12 -60 25 -60 29 0 4 -20 15 -45 26 -25 11 -45 23 -45 26 0 4 -20 16
-45 28 -25 12 -45 25 -45 29 0 5 -18 15 -40 22 -22 7 -48 21 -58 30 -10 10
-42 28 -70 41 -59 27 -65 42 -24 57 16 5 35 16 43 24 8 7 30 20 49 27 19 8 40
19 45 26 6 6 33 22 60 35 28 13 52 27 55 30 3 4 28 17 55 31 28 13 55 29 61
34 6 6 31 19 55 30 24 11 50 26 58 34 8 7 27 18 43 23 15 6 28 13 28 17 0 4
24 18 53 32 28 13 57 29 63 34 6 6 31 19 55 30 24 11 47 25 51 31 4 6 28 19
54 29 26 10 55 26 65 36 11 11 26 19 34 19 8 0 22 8 32 18 10 10 34 25 53 32
19 7 40 19 46 26 5 7 30 20 55 30 24 9 49 22 54 29 6 6 33 22 60 35 28 13 52
27 55 30 3 4 21 15 40 25 19 10 37 21 40 24 3 3 29 17 58 30 28 14 52 28 52
32 0 4 12 12 28 17 15 6 27 11 28 11 1 1 15 -4 33 -10z m1524 -2599 c-10 -9
-40 -27 -68 -40 -27 -13 -53 -29 -57 -35 -4 -6 -26 -18 -49 -25 -22 -8 -43
-19 -46 -26 -2 -7 -27 -21 -54 -30 -27 -10 -49 -22 -49 -26 0 -5 -20 -17 -45
-28 -25 -11 -45 -23 -45 -27 0 -4 -21 -16 -46 -27 -24 -10 -50 -23 -57 -30 -7
-6 -36 -22 -64 -35 -29 -14 -53 -28 -53 -32 0 -4 -13 -11 -28 -17 -16 -5 -35
-16 -43 -23 -8 -8 -34 -23 -58 -34 -24 -11 -49 -24 -55 -30 -6 -5 -33 -21 -61
-34 -27 -14 -52 -27 -55 -31 -3 -3 -27 -17 -55 -30 -27 -13 -54 -29 -60 -35
-5 -7 -26 -18 -45 -26 -19 -7 -43 -21 -53 -30 -10 -9 -35 -22 -57 -29 -22 -7
-40 -17 -40 -22 0 -5 -22 -18 -50 -30 -27 -11 -50 -24 -50 -28 0 -4 -22 -17
-50 -29 -27 -12 -50 -25 -50 -30 0 -5 -8 -11 -17 -14 -10 -2 -26 -8 -35 -12
-17 -7 -18 37 -18 829 l0 836 28 13 c15 6 29 14 32 18 3 4 30 17 60 30 30 12
57 26 60 30 3 3 30 17 60 30 30 12 57 26 60 29 3 4 28 17 55 30 28 13 52 27
55 31 3 4 24 15 48 24 23 10 42 20 42 24 0 4 29 18 65 31 36 13 65 27 65 31 0
4 26 17 58 30 31 12 60 28 64 35 4 6 30 20 58 30 27 10 50 21 50 25 0 4 20 15
45 25 25 9 45 20 45 23 0 4 23 15 50 25 28 10 56 24 63 30 7 7 30 19 52 28 22
8 44 25 50 36 5 12 21 26 35 31 15 5 33 15 41 23 8 7 30 20 49 27 19 8 40 19
45 26 6 6 33 22 60 35 28 13 52 27 55 31 3 4 21 13 40 21 l35 14 3 -809 c2
-762 1 -811 -15 -827z m-3101 1606 c8 -7 34 -24 59 -36 24 -13 46 -26 49 -30
3 -4 23 -15 45 -26 22 -10 46 -24 54 -32 7 -7 31 -20 52 -29 22 -8 39 -19 39
-23 0 -4 24 -18 53 -30 28 -12 54 -26 57 -29 3 -4 31 -18 63 -30 31 -13 57
-26 57 -30 0 -4 23 -15 50 -25 28 -10 50 -22 50 -26 0 -4 27 -18 60 -30 32
-12 60 -25 62 -29 2 -4 28 -17 58 -30 30 -13 57 -27 60 -30 3 -4 31 -18 63
-30 31 -13 57 -26 57 -30 0 -4 23 -15 50 -25 28 -10 50 -22 50 -26 0 -4 27
-18 60 -30 32 -12 60 -25 62 -29 2 -4 28 -17 58 -30 30 -13 57 -27 60 -30 3
-4 31 -18 63 -30 31 -13 57 -27 57 -31 0 -4 9 -10 20 -13 20 -5 20 -14 20
-841 0 -791 -1 -835 -17 -829 -10 4 -26 14 -36 23 -10 10 -35 23 -57 30 -22 7
-40 16 -40 21 0 4 -17 14 -39 22 -21 9 -45 22 -52 30 -8 7 -36 22 -62 32 -26
10 -51 23 -55 30 -4 7 -28 20 -54 30 -27 10 -48 21 -48 24 0 4 -25 18 -55 32
-30 13 -55 27 -55 30 0 4 -21 14 -47 24 -27 10 -53 23 -58 30 -6 7 -35 23 -65
36 -30 13 -59 28 -65 35 -5 6 -25 17 -42 24 -18 7 -33 16 -33 20 0 4 -18 13
-40 20 -22 7 -47 20 -57 29 -10 9 -44 27 -75 40 -32 13 -58 27 -58 31 0 4 -24
18 -52 30 -29 12 -55 25 -58 29 -3 3 -23 15 -45 26 -22 11 -42 23 -45 26 -3 4
-29 17 -57 29 -29 12 -53 26 -53 30 0 5 -27 19 -60 32 -54 21 -77 38 -50 38 7
0 10 277 10 810 0 492 4 810 9 810 5 0 16 -6 23 -14z"/>
<path d="M580 4906 c0 -8 -11 -17 -25 -20 -21 -5 -25 -12 -25 -41 0 -24 -5
-35 -15 -35 -10 0 -15 -10 -15 -30 0 -16 -4 -30 -10 -30 -5 0 -10 -13 -10 -29
0 -62 -13 -121 -26 -121 -9 0 -14 -11 -14 -30 0 -16 -4 -30 -10 -30 -5 0 -10
-18 -10 -40 0 -27 -4 -40 -14 -40 -10 0 -15 -24 -20 -90 -4 -49 -12 -90 -17
-90 -5 0 -9 -20 -9 -45 0 -33 -4 -45 -15 -45 -11 0 -15 -11 -15 -40 0 -22 -4
-40 -9 -40 -5 0 -12 -47 -16 -105 -6 -79 -11 -105 -21 -105 -9 0 -14 -11 -14
-30 0 -16 -4 -30 -10 -30 -7 0 -10 -153 -10 -440 0 -287 3 -440 10 -440 6 0
10 -27 10 -60 0 -44 4 -60 14 -60 10 0 14 -46 20 -222 4 -123 11 -224 17 -226
5 -2 9 -28 9 -58 0 -41 4 -54 15 -54 11 0 15 -11 15 -40 0 -22 4 -40 9 -40 6
0 13 -20 17 -45 5 -39 10 -45 30 -45 13 0 24 -4 24 -10 0 -5 6 -10 14 -10 8 0
18 -9 21 -20 3 -11 11 -20 16 -20 5 0 9 -11 9 -25 0 -20 5 -25 25 -25 14 0 25
-4 25 -10 0 -5 7 -10 15 -10 8 0 15 -9 15 -20 0 -11 7 -20 15 -20 8 0 15 -4
15 -10 0 -5 7 -10 15 -10 8 0 15 -9 15 -20 0 -11 7 -20 15 -20 9 0 15 -9 15
-25 0 -20 5 -25 25 -25 14 0 25 -4 25 -10 0 -5 7 -10 15 -10 8 0 15 -9 15 -20
0 -11 7 -20 15 -20 9 0 15 -9 15 -24 0 -17 7 -26 25 -30 15 -4 27 -16 31 -31
4 -18 13 -25 30 -25 15 0 24 -6 24 -15 0 -8 6 -15 14 -15 8 0 17 -11 20 -25 4
-14 11 -25 16 -25 6 0 10 -6 10 -14 0 -8 11 -17 25 -20 15 -4 27 -16 31 -31 3
-14 11 -25 16 -25 6 0 23 -13 38 -30 15 -16 33 -30 38 -30 6 0 14 -9 17 -20 3
-11 13 -20 21 -20 8 0 14 -6 14 -14 0 -8 9 -18 20 -21 11 -3 20 -11 20 -16 0
-13 66 -79 79 -79 5 0 13 -9 16 -20 3 -11 11 -20 16 -20 5 0 9 -6 9 -14 0 -8
11 -17 25 -20 15 -4 27 -16 31 -31 3 -14 11 -25 18 -25 6 0 18 -9 26 -20 8
-11 20 -20 27 -20 6 0 15 -9 18 -20 3 -11 11 -20 16 -20 5 0 9 -9 9 -20 0 -11
7 -20 15 -20 9 0 15 -9 15 -25 0 -14 4 -25 9 -25 4 0 12 -31 15 -70 5 -51 11
-70 22 -70 10 0 14 -12 14 -40 l0 -40 -129 0 c-104 0 -133 -3 -145 -16 -14
-13 -16 -54 -16 -293 0 -257 1 -280 19 -299 10 -12 28 -22 40 -22 11 0 21 -4
21 -10 0 -5 9 -10 20 -10 19 0 20 7 20 265 l0 265 966 0 c823 0 968 -2 980
-14 11 -12 14 -61 14 -265 l0 -251 40 0 c22 0 40 5 40 10 0 6 7 10 15 10 13 0
15 40 15 300 0 207 -3 300 -11 300 -6 0 -17 7 -25 15 -10 10 -35 15 -70 15
l-54 0 0 418 c0 474 -6 612 -27 612 -9 0 -13 16 -13 55 0 30 -4 55 -10 55 -5
0 -10 14 -10 30 0 17 -4 30 -10 30 -5 0 -10 7 -10 15 0 8 -4 15 -10 15 -5 0
-10 7 -10 15 0 8 -4 15 -10 15 -5 0 -10 9 -10 21 0 21 -22 49 -39 49 -5 0 -13
9 -16 20 -3 11 -11 20 -16 20 -5 0 -9 7 -9 15 0 8 -7 15 -15 15 -8 0 -15 4
-15 9 0 5 -9 13 -20 16 -11 3 -20 11 -20 16 0 13 -46 59 -60 59 -5 0 -10 4
-10 8 0 14 -36 52 -49 52 -6 0 -11 6 -11 14 0 8 -7 16 -15 20 -8 3 -15 12 -15
21 0 8 -6 15 -13 15 -7 0 -19 9 -27 20 -8 11 -19 20 -24 20 -10 0 -46 39 -46
52 0 4 -7 8 -15 8 -8 0 -15 7 -15 15 0 8 -11 17 -25 21 -15 4 -28 16 -31 30
-5 19 -13 24 -40 24 -19 0 -34 5 -34 10 0 6 -20 10 -45 10 -25 0 -45 5 -45 10
0 6 -13 10 -30 10 -16 0 -30 5 -30 10 0 6 -40 10 -100 10 -60 0 -100 4 -100
10 0 6 -25 10 -55 10 -42 0 -55 3 -55 15 0 9 -9 15 -25 15 -14 0 -25 4 -25 9
0 5 -9 13 -20 16 -11 3 -20 12 -20 18 0 7 -9 19 -20 27 -11 8 -20 20 -20 27 0
7 -6 13 -13 13 -14 0 -47 35 -47 50 0 6 -4 10 -10 10 -15 0 -50 33 -50 47 0 7
-5 13 -11 13 -14 0 -39 25 -39 39 0 6 -6 11 -13 11 -14 0 -47 35 -47 50 0 6
-4 10 -10 10 -15 0 -50 33 -50 47 0 7 -5 13 -11 13 -13 0 -39 25 -39 38 0 5
-11 13 -25 16 -15 4 -27 16 -31 31 -4 18 -13 25 -30 25 -13 0 -24 5 -24 10 0
6 -7 10 -15 10 -8 0 -15 5 -15 10 0 6 -7 10 -15 10 -8 0 -15 5 -15 10 0 6 -20
10 -45 10 -25 0 -45 5 -45 10 0 6 -30 10 -70 10 -68 0 -70 1 -70 25 0 16 -6
25 -15 25 -10 0 -15 10 -15 30 0 17 -4 30 -10 30 -5 0 -10 14 -10 30 0 17 -4
30 -10 30 -5 0 -10 18 -10 40 0 22 -4 40 -10 40 -5 0 -10 11 -10 25 0 14 -4
25 -10 25 -5 0 -10 20 -10 45 0 25 -4 45 -10 45 -5 0 -10 18 -10 40 0 28 -4
40 -14 40 -19 0 -29 65 -21 124 5 29 12 46 21 46 10 0 14 15 14 55 0 30 5 55
10 55 6 0 10 32 10 75 0 43 4 75 10 75 6 0 10 35 10 85 0 50 -4 85 -10 85 -5
0 -10 23 -10 50 0 28 -4 50 -10 50 -5 0 -10 14 -10 30 0 19 -5 30 -14 30 -9 0
-16 17 -20 45 -5 29 -12 45 -22 45 -8 0 -14 10 -14 24 0 16 -7 27 -20 31 -11
3 -20 11 -20 16 0 5 -7 9 -15 9 -9 0 -15 9 -15 25 0 14 -7 28 -15 31 -8 4 -15
12 -15 20 0 8 -10 14 -25 14 -18 0 -26 7 -31 24 -3 15 -15 27 -30 30 -13 4
-24 11 -24 16 0 6 -9 10 -20 10 -11 0 -20 7 -20 15 0 9 -9 15 -25 15 -14 0
-25 4 -25 9 0 5 -27 12 -60 16 -41 5 -60 11 -60 21 0 10 -12 14 -40 14 -28 0
-40 -4 -40 -14z m140 -146 c0 -5 9 -10 20 -10 11 0 20 -7 20 -15 0 -9 9 -15
24 -15 27 0 56 -24 56 -46 0 -8 10 -14 25 -14 16 0 25 -6 25 -15 0 -8 9 -15
20 -15 14 0 20 -7 20 -21 0 -19 21 -49 35 -49 18 0 35 -33 41 -79 4 -33 11
-51 20 -51 8 0 14 -9 14 -20 0 -11 5 -20 10 -20 6 0 10 -55 10 -145 0 -90 -4
-145 -10 -145 -5 0 -10 -25 -10 -55 0 -40 -4 -55 -14 -55 -9 0 -15 -21 -20
-72 -4 -40 -11 -74 -16 -76 -12 -4 -13 -52 -1 -52 4 0 12 -31 15 -70 5 -51 11
-70 22 -70 9 0 14 -11 14 -35 0 -19 5 -35 10 -35 6 0 10 -16 10 -35 0 -19 5
-35 10 -35 6 0 10 -18 10 -40 0 -28 4 -40 14 -40 10 0 16 -19 21 -60 5 -41 11
-60 21 -60 9 0 14 -12 14 -34 0 -19 6 -37 13 -40 10 -5 10 -7 0 -12 -7 -3 -13
-14 -13 -25 0 -12 -7 -19 -20 -19 -11 0 -20 -7 -20 -15 0 -8 -5 -15 -11 -15
-14 0 -39 -26 -39 -40 0 -14 -25 -40 -38 -40 -13 0 -22 -75 -22 -175 0 -101 8
-145 26 -145 8 0 14 -10 14 -25 0 -14 5 -25 10 -25 6 0 10 -7 10 -15 0 -8 5
-15 10 -15 6 0 10 -7 10 -15 0 -8 6 -15 14 -15 7 0 16 -13 20 -30 3 -16 10
-30 16 -30 13 0 40 -25 40 -36 0 -9 41 -44 52 -44 4 0 8 -5 8 -11 0 -14 25
-39 39 -39 6 0 11 -4 11 -8 0 -11 35 -52 44 -52 11 0 31 -23 39 -42 3 -10 13
-18 22 -18 8 0 15 -5 15 -11 0 -14 25 -39 39 -39 6 0 11 -4 11 -8 0 -11 35
-52 44 -52 11 0 36 -27 36 -40 0 -6 8 -14 18 -17 22 -9 42 -29 42 -42 0 -6 7
-11 15 -11 8 0 15 -4 15 -8 0 -11 35 -52 44 -52 11 0 36 -27 36 -39 0 -6 5
-11 10 -11 13 0 50 -37 50 -50 0 -5 5 -10 11 -10 14 0 39 -25 39 -40 0 -6 8
-14 18 -17 22 -9 42 -29 42 -42 0 -6 9 -11 20 -11 15 0 20 7 20 25 0 18 7 26
25 31 18 4 25 13 25 30 0 15 -6 24 -15 24 -8 0 -15 5 -15 10 0 13 -37 50 -50
50 -5 0 -10 5 -10 11 0 14 -25 39 -39 39 -6 0 -11 4 -11 8 0 14 -36 52 -49 52
-6 0 -11 4 -11 10 0 15 -33 50 -47 50 -7 0 -13 5 -13 11 0 12 -25 39 -36 39
-9 0 -44 41 -44 52 0 4 -5 8 -11 8 -14 0 -39 25 -39 39 0 6 -7 11 -15 11 -9 0
-19 8 -22 18 -8 19 -28 42 -39 42 -9 0 -44 41 -44 52 0 4 -5 8 -11 8 -14 0
-39 25 -39 39 0 6 -6 11 -13 11 -14 0 -47 35 -47 50 0 6 -5 10 -11 10 -13 0
-49 38 -49 52 0 4 -5 8 -11 8 -14 0 -39 25 -39 39 0 6 -4 11 -10 11 -5 0 -10
7 -10 15 0 8 -4 15 -10 15 -5 0 -10 7 -10 15 0 8 -4 15 -10 15 -5 0 -10 11
-10 25 0 14 -4 25 -10 25 -5 0 -10 7 -10 15 0 8 -6 15 -14 15 -8 0 -16 16 -19
43 -8 58 2 127 19 127 9 0 14 11 14 30 0 17 5 30 10 30 6 0 10 5 10 11 0 16
26 39 44 39 9 0 16 6 16 14 0 21 23 26 118 26 100 0 132 -7 132 -26 0 -8 10
-14 25 -14 18 0 26 -7 31 -24 3 -15 15 -27 30 -30 13 -4 24 -11 24 -16 0 -6 6
-10 14 -10 8 0 17 -11 20 -25 4 -15 16 -27 31 -31 14 -3 25 -11 25 -16 0 -13
26 -38 39 -38 6 0 11 -6 11 -13 0 -14 35 -47 50 -47 6 0 10 -4 10 -10 0 -15
33 -50 47 -50 7 0 13 -5 13 -11 0 -14 25 -39 39 -39 6 0 11 -6 11 -13 0 -14
35 -47 50 -47 6 0 10 -7 10 -15 0 -8 4 -15 9 -15 5 0 13 -9 16 -20 3 -11 12
-20 18 -20 7 0 19 -9 27 -20 8 -11 22 -20 32 -20 10 0 18 -7 18 -15 0 -10 10
-15 34 -15 19 0 36 -4 38 -10 2 -6 74 -13 171 -17 130 -5 167 -9 167 -20 0 -8
12 -13 30 -13 17 0 30 -4 30 -10 0 -5 13 -10 28 -10 16 0 34 -8 42 -20 8 -11
19 -20 24 -20 12 0 46 -40 46 -55 0 -7 11 -16 25 -19 14 -4 25 -13 25 -21 0
-8 7 -15 15 -15 8 0 15 -4 15 -8 0 -13 36 -52 46 -52 5 0 16 -9 24 -20 8 -11
20 -20 27 -20 7 0 13 -6 13 -13 0 -14 35 -47 50 -47 6 0 10 -7 10 -15 0 -8 4
-15 9 -15 5 0 13 -9 16 -20 3 -11 11 -20 16 -20 11 0 59 -45 59 -56 0 -11 42
-44 57 -44 7 0 13 -11 13 -24 0 -13 5 -26 10 -28 6 -2 14 -29 17 -61 4 -38 10
-57 19 -57 10 0 14 -13 14 -40 0 -22 5 -40 10 -40 6 0 10 -40 10 -100 0 -60 4
-100 10 -100 6 0 10 -132 10 -375 0 -243 -4 -375 -10 -375 -5 0 -10 -7 -10
-15 0 -13 -91 -15 -755 -15 l-755 0 0 70 c0 56 -3 70 -15 70 -11 0 -15 11 -15
40 0 22 -4 40 -10 40 -5 0 -10 10 -10 23 0 38 -12 67 -26 67 -8 0 -14 9 -14
20 0 11 -4 20 -10 20 -5 0 -10 9 -10 20 0 11 -6 20 -14 20 -8 0 -17 11 -20 25
-4 15 -16 27 -31 31 -14 3 -25 12 -25 20 0 8 -4 14 -9 14 -5 0 -13 9 -16 20
-3 11 -12 20 -18 20 -7 0 -19 9 -27 20 -8 11 -20 20 -27 20 -8 0 -16 14 -19
30 -5 23 -12 30 -30 30 -15 0 -24 6 -24 15 0 8 -4 15 -9 15 -5 0 -13 9 -16 20
-3 11 -11 20 -16 20 -16 0 -39 27 -39 44 0 9 -8 16 -20 16 -11 0 -20 7 -20 15
0 8 -4 15 -10 15 -5 0 -10 7 -10 15 0 9 -9 15 -24 15 -17 0 -26 7 -30 25 -4
14 -13 25 -21 25 -8 0 -15 7 -15 15 0 8 -4 15 -10 15 -5 0 -10 7 -10 15 0 9
-9 15 -24 15 -19 0 -25 6 -28 27 -2 22 -9 29 -30 31 -22 3 -28 9 -28 28 0 15
-6 24 -15 24 -8 0 -15 7 -15 15 0 8 -7 15 -15 15 -8 0 -15 7 -15 15 0 9 -9 15
-24 15 -19 0 -25 6 -28 27 -2 22 -9 29 -30 31 -22 3 -28 9 -28 28 0 15 -6 24
-15 24 -8 0 -15 9 -15 20 0 11 -5 20 -11 20 -14 0 -39 25 -39 39 0 6 -7 11
-15 11 -8 0 -15 4 -15 8 0 14 -36 52 -49 52 -6 0 -11 5 -11 10 0 6 -7 10 -15
10 -9 0 -15 9 -15 24 0 17 -7 26 -25 30 -14 4 -25 13 -25 21 0 8 -5 15 -11 15
-24 0 -39 32 -45 99 -5 50 -11 71 -20 71 -10 0 -14 17 -14 65 0 37 -4 65 -10
65 -6 0 -10 38 -10 95 0 73 -3 95 -13 95 -15 0 -27 250 -27 543 0 84 -4 137
-10 137 -6 0 -10 63 -10 170 0 107 4 170 10 170 6 0 10 17 10 38 0 97 13 192
26 192 10 0 14 15 14 55 0 30 5 55 10 55 6 0 10 14 10 30 0 19 5 30 14 30 11
0 16 26 21 110 4 61 11 110 16 110 5 0 9 14 9 30 0 20 5 30 15 30 10 0 15 11
15 35 0 19 5 35 10 35 6 0 10 18 10 40 0 27 4 40 14 40 9 0 15 21 20 73 4 39
11 74 16 75 6 2 10 17 10 33 0 19 5 29 15 29 8 0 15 5 15 10 0 6 18 10 40 10
22 0 40 -4 40 -10z"/>
<path d="M6760 4906 c0 -9 -18 -15 -57 -18 -31 -3 -59 -10 -61 -16 -2 -7 -15
-12 -28 -12 -15 0 -24 -6 -24 -15 0 -8 -9 -15 -20 -15 -11 0 -20 -4 -20 -9 0
-5 -13 -11 -30 -14 -16 -4 -30 -11 -30 -17 0 -15 -25 -40 -39 -40 -6 0 -11 -4
-11 -10 0 -13 -37 -50 -50 -50 -5 0 -10 -6 -10 -13 0 -7 -9 -19 -20 -27 -11
-8 -20 -22 -20 -32 0 -10 -4 -18 -10 -18 -5 0 -10 -8 -10 -18 0 -10 -9 -24
-20 -32 -13 -9 -20 -26 -20 -47 0 -23 -5 -33 -15 -33 -10 0 -15 -10 -15 -30 0
-16 -4 -30 -10 -30 -6 0 -10 -63 -10 -170 0 -107 4 -170 10 -170 6 0 10 -28
10 -65 0 -51 3 -65 15 -65 10 0 15 -10 15 -30 0 -16 5 -30 10 -30 6 0 10 -30
10 -70 0 -40 -4 -70 -10 -70 -5 0 -10 -13 -10 -30 0 -20 -5 -30 -15 -30 -11 0
-15 -11 -15 -40 0 -22 -4 -40 -10 -40 -5 0 -10 -13 -10 -30 0 -16 -4 -30 -10
-30 -5 0 -10 -13 -10 -30 0 -16 -4 -30 -10 -30 -5 0 -10 -16 -10 -35 0 -19 -4
-35 -10 -35 -5 0 -10 -20 -10 -45 0 -33 -4 -45 -15 -45 -10 0 -15 -10 -15 -30
l0 -30 -70 0 c-40 0 -70 -4 -70 -10 0 -5 -24 -10 -54 -10 -46 0 -56 -3 -61
-20 -4 -13 -15 -20 -31 -20 -13 0 -24 -4 -24 -10 0 -5 -6 -10 -14 -10 -8 0
-17 -11 -20 -25 -4 -16 -13 -25 -25 -25 -30 0 -51 -11 -51 -26 0 -8 -7 -14
-15 -14 -8 0 -17 -11 -21 -25 -3 -13 -15 -27 -27 -31 -27 -8 -43 -24 -51 -51
-4 -12 -18 -24 -31 -27 -14 -4 -25 -12 -25 -19 0 -7 -9 -19 -20 -27 -11 -8
-20 -20 -20 -27 0 -6 -10 -15 -22 -19 -28 -8 -43 -24 -52 -51 -4 -12 -18 -24
-31 -27 -14 -4 -25 -12 -25 -19 0 -7 -9 -19 -20 -27 -11 -8 -20 -20 -20 -27 0
-7 -4 -13 -10 -13 -5 0 -10 -7 -10 -15 0 -9 -9 -15 -25 -15 -16 0 -25 -6 -25
-15 0 -12 -13 -15 -60 -15 -33 0 -60 -4 -60 -10 0 -6 -38 -10 -95 -10 -57 0
-95 -4 -95 -10 0 -5 -20 -10 -45 -10 -25 0 -45 -4 -45 -10 0 -5 -18 -10 -40
-10 -22 0 -40 -4 -40 -10 0 -5 -11 -10 -24 -10 -17 0 -26 -7 -30 -24 -3 -14
-16 -26 -31 -30 -14 -4 -25 -13 -25 -21 0 -8 -9 -15 -20 -15 -12 0 -20 -7 -20
-16 0 -15 -23 -44 -35 -44 -10 0 -55 -48 -55 -59 0 -5 -9 -13 -20 -16 -11 -3
-20 -13 -20 -21 0 -8 -5 -14 -11 -14 -13 0 -49 -38 -49 -52 0 -4 -5 -8 -10 -8
-14 0 -60 -46 -60 -60 0 -5 -4 -10 -8 -10 -14 0 -52 -36 -52 -49 0 -6 -6 -11
-14 -11 -8 0 -18 -9 -21 -20 -3 -11 -11 -20 -16 -20 -18 0 -59 -49 -59 -70 0
-11 -4 -20 -10 -20 -5 0 -10 -9 -10 -20 0 -11 -4 -20 -10 -20 -5 0 -10 -11
-10 -25 0 -14 -4 -25 -10 -25 -5 0 -10 -13 -10 -30 0 -19 -5 -30 -14 -30 -15
0 -26 -117 -26 -272 0 -52 -4 -88 -10 -88 -6 0 -10 -128 -10 -365 l0 -365 -47
0 c-72 0 -93 -8 -93 -36 0 -13 -4 -24 -10 -24 -6 0 -10 -100 -10 -281 0 -311
-1 -309 65 -309 65 0 65 1 65 279 l0 251 970 0 970 0 0 -190 c0 -120 4 -190
10 -190 6 0 10 -7 10 -15 0 -8 -4 -15 -10 -15 -5 0 -10 -21 -10 -46 0 -67 39
-97 70 -54 8 11 25 20 37 20 l23 0 1 263 c1 312 0 330 -14 339 -7 4 -69 8
-139 8 l-128 0 0 45 c0 31 4 45 14 45 9 0 15 22 20 78 3 42 11 79 16 80 6 2
10 10 10 18 0 8 7 14 15 14 8 0 15 7 15 15 0 8 4 15 9 15 5 0 11 14 15 30 3
17 10 30 16 30 15 0 40 25 40 39 0 6 5 11 10 11 13 0 50 37 50 50 0 6 5 10 11
10 13 0 49 38 49 52 0 4 5 8 10 8 14 0 60 46 60 59 0 5 9 13 20 16 11 3 20 13
20 21 0 8 5 14 10 14 14 0 120 106 120 120 0 5 5 10 10 10 13 0 50 37 50 50 0
6 5 10 11 10 14 0 39 25 39 39 0 6 4 11 8 11 14 0 52 36 52 49 0 6 5 11 10 11
13 0 50 37 50 50 0 6 5 10 11 10 14 0 39 25 39 40 0 6 8 14 18 17 22 9 42 29
42 42 0 6 5 11 10 11 13 0 50 37 50 50 0 6 5 10 11 10 14 0 39 25 39 40 0 6 8
14 18 17 22 9 42 29 42 42 0 6 5 11 11 11 13 0 49 38 49 52 0 4 5 8 11 8 14 0
39 25 39 39 0 6 6 11 14 11 15 0 26 30 26 73 0 15 5 27 10 27 6 0 10 14 10 30
0 20 5 30 15 30 12 0 15 16 15 85 0 47 4 85 9 85 5 0 12 90 16 200 6 160 10
200 21 200 11 0 14 36 14 195 0 123 4 195 10 195 6 0 10 87 10 240 0 153 -4
240 -10 240 -6 0 -10 30 -10 70 0 52 -3 70 -14 70 -13 0 -26 77 -26 156 0 19
-4 34 -10 34 -5 0 -10 25 -10 55 0 42 -3 55 -15 55 -10 0 -15 10 -15 30 0 17
-4 30 -9 30 -5 0 -12 43 -16 95 -6 71 -11 95 -21 95 -10 0 -14 13 -14 45 0 25
-4 45 -10 45 -5 0 -10 14 -10 30 0 19 -5 30 -14 30 -11 0 -17 19 -22 70 -3 39
-11 70 -15 70 -5 0 -9 18 -9 40 0 29 -4 40 -15 40 -8 0 -15 7 -15 15 0 8 -4
15 -10 15 -5 0 -10 11 -10 25 0 16 -6 25 -15 25 -8 0 -15 9 -15 20 0 17 -7 20
-40 20 -27 0 -40 -4 -40 -14z m20 -166 c0 -20 5 -30 15 -30 9 0 15 -9 15 -25
0 -14 4 -25 9 -25 5 0 12 -38 16 -85 5 -62 11 -85 21 -85 9 0 14 -11 14 -30 0
-16 5 -30 10 -30 6 0 10 -18 10 -40 0 -29 4 -40 15 -40 11 0 15 -12 15 -45 0
-25 4 -45 9 -45 5 0 12 -43 16 -95 5 -72 10 -95 21 -95 9 0 14 -11 14 -30 0
-16 5 -30 10 -30 6 0 10 -25 10 -55 0 -40 4 -55 14 -55 22 0 29 -249 21 -706
-6 -331 -10 -404 -21 -404 -11 0 -14 -27 -14 -130 0 -80 -4 -130 -10 -130 -5
0 -10 -18 -10 -40 0 -27 -4 -40 -13 -40 -11 0 -16 -28 -20 -111 -6 -107 -17
-139 -46 -139 -6 0 -11 -7 -11 -15 0 -8 -11 -17 -25 -21 -13 -3 -27 -15 -31
-27 -7 -22 -28 -47 -40 -47 -9 0 -44 -41 -44 -52 0 -4 -7 -8 -15 -8 -8 0 -15
-5 -15 -11 0 -13 -20 -33 -42 -42 -10 -3 -18 -11 -18 -17 0 -15 -25 -40 -39
-40 -6 0 -11 -4 -11 -10 0 -13 -37 -50 -50 -50 -5 0 -10 -5 -10 -11 0 -13 -38
-49 -52 -49 -4 0 -8 -5 -8 -11 0 -14 -25 -39 -39 -39 -6 0 -11 -4 -11 -10 0
-13 -37 -50 -50 -50 -5 0 -10 -5 -10 -11 0 -13 -38 -49 -52 -49 -4 0 -8 -6 -8
-13 0 -7 -9 -19 -20 -27 -11 -8 -20 -20 -20 -27 0 -7 -6 -13 -13 -13 -15 0
-57 -33 -57 -44 0 -11 -48 -56 -60 -56 -5 0 -10 -4 -10 -8 0 -14 -36 -52 -49
-52 -6 0 -11 -6 -11 -14 0 -8 -7 -16 -15 -20 -8 -3 -15 -12 -15 -21 0 -8 -6
-15 -13 -15 -7 0 -19 -9 -27 -20 -8 -11 -20 -20 -27 -20 -7 0 -13 -4 -13 -8 0
-14 -36 -52 -49 -52 -6 0 -11 -4 -11 -10 0 -13 -37 -50 -50 -50 -5 0 -10 -7
-10 -15 0 -8 -4 -15 -10 -15 -5 0 -10 -9 -10 -20 0 -11 -6 -20 -14 -20 -9 0
-15 -16 -19 -47 -3 -26 -10 -49 -16 -51 -6 -2 -11 -17 -11 -33 0 -19 -5 -29
-15 -29 -12 0 -15 -14 -15 -70 0 -40 -4 -70 -10 -70 -5 0 -10 -11 -10 -25 l0
-25 -755 0 -755 0 0 430 c0 280 3 430 10 430 6 0 10 35 10 85 0 50 4 85 10 85
6 0 10 14 10 30 0 19 5 30 14 30 10 0 17 17 21 55 5 37 12 55 21 55 8 0 14 7
14 15 0 8 4 15 8 15 11 0 52 35 52 44 0 11 48 56 59 56 5 0 13 9 16 20 3 11
11 20 16 20 5 0 9 7 9 15 0 8 7 15 15 15 8 0 15 4 15 9 0 5 9 13 20 16 11 3
20 11 20 16 0 11 45 59 56 59 9 0 44 41 44 52 0 4 7 8 15 8 8 0 15 7 15 15 0
8 11 17 25 21 14 3 25 12 25 19 0 15 34 55 46 55 5 0 16 9 24 20 8 11 22 20
32 20 10 0 18 5 18 10 0 6 18 10 40 10 27 0 40 4 40 13 0 11 36 15 162 20 96
4 164 11 166 17 2 5 21 10 43 10 21 0 39 5 39 11 0 16 26 39 44 39 9 0 16 8
16 20 0 11 7 20 15 20 8 0 17 11 21 25 4 18 13 25 30 25 15 0 24 6 24 15 0 8
5 15 10 15 6 0 10 5 10 11 0 16 26 39 44 39 9 0 16 8 16 20 0 11 7 20 15 20 8
0 17 11 21 25 4 18 13 25 30 25 15 0 24 6 24 15 0 8 4 15 9 15 5 0 12 11 15
25 5 18 13 25 31 25 18 0 25 5 25 20 0 11 5 20 11 20 14 0 39 25 39 39 0 6 9
11 20 11 11 0 20 7 20 15 0 8 5 15 10 15 6 0 10 7 10 15 0 8 9 15 20 15 11 0
20 5 20 10 0 6 11 10 25 10 15 0 25 6 25 14 0 18 32 26 110 26 84 0 140 -10
140 -24 0 -6 9 -18 20 -26 11 -8 20 -20 20 -27 0 -7 11 -15 25 -19 21 -5 25
-12 25 -40 0 -19 5 -34 10 -34 6 0 10 -27 10 -60 0 -33 -4 -60 -10 -60 -5 0
-10 -13 -10 -30 0 -20 -5 -30 -15 -30 -8 0 -15 -7 -15 -15 0 -8 -4 -15 -10
-15 -5 0 -10 -11 -10 -25 0 -14 -4 -25 -8 -25 -14 0 -52 -36 -52 -49 0 -6 -7
-11 -15 -11 -8 0 -15 -4 -15 -8 0 -11 -35 -52 -44 -52 -12 0 -33 -25 -40 -47
-4 -12 -18 -24 -31 -27 -14 -4 -25 -13 -25 -21 0 -8 -7 -15 -15 -15 -8 0 -15
-4 -15 -8 0 -12 -35 -52 -45 -52 -12 0 -45 -41 -45 -55 0 -7 -11 -16 -25 -19
-14 -4 -25 -13 -25 -21 0 -8 -7 -15 -15 -15 -8 0 -15 -4 -15 -8 0 -13 -36 -52
-46 -52 -5 0 -16 -9 -24 -20 -8 -11 -20 -20 -27 -20 -7 0 -13 -6 -13 -13 0
-14 -35 -47 -50 -47 -6 0 -10 -7 -10 -15 0 -8 -4 -15 -9 -15 -5 0 -13 -9 -16
-20 -3 -11 -11 -20 -16 -20 -12 0 -59 -46 -59 -57 0 -5 -9 -15 -20 -23 -11 -8
-20 -22 -20 -32 0 -13 -8 -18 -25 -18 -20 0 -25 -5 -25 -24 0 -17 7 -27 22
-32 26 -8 48 -28 48 -43 0 -6 9 -11 20 -11 15 0 20 7 20 25 0 18 7 26 24 31
15 3 27 15 30 30 5 17 13 24 31 24 18 0 25 5 25 20 0 11 4 20 10 20 5 0 12 11
16 25 3 14 11 25 18 25 6 0 18 9 26 20 8 11 19 20 24 20 13 0 46 41 46 57 0 7
7 13 15 13 8 0 15 4 15 10 0 5 11 12 25 16 14 3 25 12 25 19 0 14 33 55 45 55
10 0 45 40 45 52 0 4 7 8 15 8 8 0 15 7 15 15 0 8 11 17 25 21 14 3 25 12 25
19 0 14 33 55 45 55 10 0 45 40 45 52 0 4 7 8 15 8 8 0 15 7 15 15 0 8 4 15 8
15 11 0 52 35 52 44 0 9 26 36 35 36 15 0 75 72 75 90 0 11 5 20 10 20 6 0 10
9 10 20 0 11 5 20 10 20 6 0 10 11 10 25 0 14 6 25 14 25 9 0 15 20 19 65 9
90 -2 195 -19 195 -8 0 -14 7 -14 15 0 8 -4 15 -10 15 -5 0 -10 11 -10 25 0
14 -4 25 -8 25 -11 0 -52 35 -52 44 0 11 -27 36 -39 36 -6 0 -11 18 -11 40 0
29 4 40 15 40 10 0 15 11 15 35 0 19 5 35 10 35 6 0 10 14 10 30 0 17 5 30 10
30 6 0 10 16 10 35 0 19 5 35 10 35 6 0 10 18 10 40 0 22 5 40 10 40 6 0 10
14 10 30 0 17 5 30 10 30 6 0 10 9 10 20 0 11 6 20 14 20 10 0 16 21 21 75 9
100 -3 225 -21 225 -9 0 -14 11 -14 30 0 17 -4 30 -10 30 -6 0 -10 30 -10 70
0 40 -4 70 -10 70 -6 0 -10 35 -10 85 0 50 4 85 10 85 6 0 10 18 10 40 0 22 5
40 10 40 6 0 10 11 10 25 0 16 6 25 15 25 10 0 15 10 15 29 0 16 7 36 15 45 8
8 15 22 15 30 0 9 5 16 11 16 14 0 39 25 39 39 0 6 4 11 8 11 14 0 52 36 52
49 0 6 7 11 15 11 8 0 15 4 15 10 0 5 18 13 39 16 31 5 41 12 45 30 6 22 12
24 61 24 54 0 55 0 55 -30z"/>
</g>
</svg>
